<svg xmlns="http://www.w3.org/2000/svg" data-name="Layer 1" viewBox="0 0 100 125" x="0px" y="0px"><title>Artboard 7</title><path d="M64.41,34.33V27.46a14,14,0,0,0-14-14h-.91a14,14,0,0,0-14,14v6.86q-5.27.42-10.51,1.13v-8A24.49,24.49,0,0,1,49.55,3h.91A24.49,24.49,0,0,1,74.92,27.46v8Q69.68,34.74,64.41,34.33Zm-46.9,11a174.79,174.79,0,0,1,65,0,6.07,6.07,0,0,1,4.94,6V88.21A5.48,5.48,0,0,1,83,93.59l-3.33.63A159.5,159.5,0,0,1,50,97a159.5,159.5,0,0,1-29.65-2.78L17,93.59a5.48,5.48,0,0,1-4.46-5.38V50.78A5.48,5.48,0,0,1,17,45.4ZM43.87,79.75a16.86,16.86,0,0,0,12.26,0A1.36,1.36,0,0,0,56.92,78l-3.19-9a6,6,0,1,0-7.45,0l-3.19,9A1.36,1.36,0,0,0,43.87,79.75Z"/><text x="0" y="115" fill="#000000" font-size="5px" font-weight="bold" font-family="'Helvetica Neue', Helvetica, Arial-Unicode, Arial, Sans-serif">Created by Gregor Cresnar</text><text x="0" y="120" fill="#000000" font-size="5px" font-weight="bold" font-family="'Helvetica Neue', Helvetica, Arial-Unicode, Arial, Sans-serif">from the Noun Project</text></svg>